<svg width="30" height="26" viewBox="0 0 30 26" fill="none" xmlns="http://www.w3.org/2000/svg">
<path d="M28.6875 9.0625L16.5938 1.28125C15.6094 0.671875 14.3438 0.671875 13.4063 1.28125L1.31252 9.0625C0.843769 9.39063 0.703144 10.0469 0.984394 10.5156C1.31252 10.9844 1.96877 11.125 2.43752 10.8438L3.23439 10.3281V22.1875C3.23439 23.8281 4.54689 25.1406 6.18752 25.1406H23.8125C25.4531 25.1406 26.7656 23.8281 26.7656 22.1875V10.3281L27.5625 10.8438C27.75 10.9375 27.9375 11.0312 28.125 11.0312C28.4531 11.0312 28.8281 10.8437 29.0156 10.5625C29.3438 10.0469 29.2031 9.39063 28.6875 9.0625ZM24.6563 22.1875C24.6563 22.6562 24.2813 23.0312 23.8125 23.0312H6.18752C5.71877 23.0312 5.34377 22.6562 5.34377 22.1875V8.96875L14.5313 3.0625C14.8125 2.875 15.1875 2.875 15.4688 3.0625L24.6563 8.96875V22.1875Z" fill="#637381"/>
</svg>
