<svg width="22" height="30" viewBox="0 0 22 30" fill="none" xmlns="http://www.w3.org/2000/svg">
<path d="M10.9062 15.1406C10.3437 15.1406 9.875 15.6094 9.875 16.1719V21.4219C9.875 21.9844 10.3437 22.4531 10.9062 22.4531C11.4687 22.4531 11.9844 21.9844 11.9844 21.4219V16.1719C11.9375 15.6094 11.4687 15.1406 10.9062 15.1406Z" fill="#637381"/>
<path d="M8.84375 18.2344C8.79687 18.1875 8.79688 18.0937 8.75 18.0469C8.70313 18 8.65625 17.9531 8.60937 17.9062C8.23437 17.5313 7.53125 17.5313 7.10938 17.9062C7.0625 17.9531 7.01562 18 6.96875 18.0469C6.92187 18.0937 6.92188 18.1875 6.875 18.2344C6.875 18.2813 6.82813 18.375 6.82813 18.4219C6.82813 18.5156 6.78125 18.5625 6.78125 18.6094C6.78125 18.8906 6.875 19.1719 7.10938 19.3594C7.29688 19.5469 7.57812 19.6875 7.85937 19.6875C8.14062 19.6875 8.42187 19.5937 8.60937 19.3594C8.65625 19.3125 8.70313 19.2656 8.75 19.2187C8.79688 19.1719 8.84375 19.125 8.84375 19.0312C8.89062 18.9844 8.89062 18.8906 8.89062 18.8437C8.89062 18.75 8.89062 18.7031 8.89062 18.6094C8.89062 18.5625 8.89062 18.4687 8.89062 18.4219C8.89062 18.375 8.84375 18.3281 8.84375 18.2344Z" fill="#637381"/>
<path d="M14.8906 18.3749C14.8438 18.3281 14.8438 18.2343 14.7969 18.1874C14.75 18.1406 14.7031 18.0937 14.6563 18.0468C14.6094 17.9999 14.5625 17.9531 14.5156 17.9062C14.4688 17.8593 14.4219 17.8124 14.3281 17.8124C14.2812 17.7656 14.1875 17.7656 14.1406 17.7656C13.8125 17.6718 13.4375 17.8124 13.2031 18.0468C13.1563 18.0937 13.1094 18.1406 13.0625 18.1874C13.0156 18.2343 12.9688 18.3281 12.9688 18.3749C12.9219 18.4218 12.9219 18.5156 12.9219 18.5624C12.9219 18.6562 12.9219 18.7031 12.9219 18.7499C12.9219 18.8437 12.9219 18.8906 12.9219 18.9843C12.9219 19.0312 12.9688 19.1249 12.9688 19.1718C13.0156 19.2187 13.0156 19.3124 13.0625 19.3593C13.1094 19.4062 13.1563 19.4531 13.2031 19.4999C13.3906 19.6874 13.6719 19.8281 13.9531 19.8281C14.2344 19.8281 14.5156 19.7343 14.7031 19.4999C14.75 19.4531 14.7969 19.4062 14.8438 19.3593C14.8906 19.3124 14.8906 19.2656 14.9375 19.1718C14.9844 19.1249 14.9844 19.0312 14.9844 18.9843C14.9844 18.9374 14.9844 18.8437 14.9844 18.7499C14.9844 18.7031 14.9844 18.6093 14.9844 18.5624C14.9375 18.5156 14.9375 18.4687 14.8906 18.3749Z" fill="#637381"/>
<path d="M20.703 17.1094L12.5468 8.95312C11.7499 8.15625 10.5312 7.875 9.45305 8.29688L5.14055 9.9375C4.99992 9.32812 4.90617 8.67188 4.90617 8.0625C4.90617 6 5.70305 4.07812 7.15617 2.625C7.57805 2.20312 7.57805 1.54687 7.15617 1.125C6.7343 0.703125 6.07805 0.703125 5.65617 1.125C3.78117 3 2.7968 5.4375 2.7968 8.0625C2.7968 9 2.93742 9.9375 3.1718 10.7812C3.07805 10.875 2.9843 11.0156 2.89055 11.1562L0.640549 17.1094C0.218674 18.1875 0.499925 19.3594 1.2968 20.2031L9.45305 28.3594C10.0155 28.9219 10.7655 29.2031 11.5155 29.2031C12.2655 29.2031 13.0155 28.9219 13.578 28.3594L20.703 21.2344C21.828 20.0625 21.828 18.2344 20.703 17.1094ZM19.203 19.6875L12.078 26.8594C11.7968 27.1406 11.2812 27.1406 10.9999 26.8594L2.7968 18.7031C2.56242 18.4688 2.51555 18.1406 2.6093 17.8594L4.34367 13.3594C4.71867 13.9688 5.14055 14.4844 5.65617 15C5.65617 15 5.65617 15 5.70305 15C5.74992 15.0469 5.7968 15.0938 5.84367 15.0938C5.89055 15.0938 5.89055 15.1406 5.93742 15.1406C5.9843 15.1406 5.9843 15.1875 6.03117 15.1875C6.1718 15.2344 6.26555 15.2812 6.40617 15.2812C6.40617 15.2812 6.40617 15.2812 6.45305 15.2812C6.45305 15.2812 6.45305 15.2812 6.49992 15.2812C6.64055 15.2812 6.7343 15.2344 6.87492 15.1875C6.9218 15.1875 6.96867 15.1406 7.01555 15.0938H7.06242C7.1093 15.0469 7.15617 15 7.20305 14.9531C7.24992 14.9062 7.2968 14.8594 7.34367 14.8125V14.7656C7.39055 14.7188 7.39055 14.6719 7.43742 14.625C7.43742 14.5781 7.4843 14.4844 7.4843 14.4375C7.4843 14.3906 7.4843 14.2969 7.4843 14.25C7.4843 14.2031 7.4843 14.1094 7.4843 14.0625C7.4843 14.0156 7.43742 13.9688 7.43742 13.875C7.43742 13.875 7.43742 13.875 7.43742 13.8281L7.39055 13.7812C7.34367 13.6875 7.2968 13.5937 7.20305 13.5C6.7343 13.0312 6.31242 12.4688 5.9843 11.9062L10.2499 10.2656C10.5312 10.1719 10.8593 10.2187 11.0937 10.4531L19.2499 18.6094C19.4843 18.8906 19.4843 19.4062 19.203 19.6875Z" fill="#637381"/>
</svg>
