<svg width="24" height="30" viewBox="0 0 24 30" fill="none" xmlns="http://www.w3.org/2000/svg">
<path d="M20.0625 15.9375C18.6562 14.25 16.875 13.0781 14.9062 12.4687C16.875 11.4375 18.1875 9.375 18.1875 6.98437C18.1875 3.5625 15.4219 0.75 11.9531 0.75C8.48438 0.75 5.76563 3.60937 5.76563 7.03125C5.76563 9.375 7.07812 11.4375 9.04688 12.5156C7.07812 13.125 5.34375 14.2969 3.89062 15.9844C1.82812 18.4219 0.65625 21.7969 0.609375 25.5C0.609375 25.9219 0.84375 26.2969 1.17187 26.4375C2.4375 27.0938 7.03125 29.1562 11.9531 29.1562C17.2969 29.1562 21.5625 27.0469 22.7812 26.3906C23.1094 26.2031 23.3438 25.8281 23.3438 25.4531C23.2969 21.7969 22.125 18.4219 20.0625 15.9375ZM12 2.95312C14.25 2.95312 16.125 4.78125 16.125 7.07812C16.125 9.375 14.2969 11.2031 12 11.2031C9.70312 11.2031 7.875 9.375 7.875 7.07812C7.875 4.78125 9.75 2.95312 12 2.95312ZM12 27.0937C8.10937 27.0937 4.3125 25.5938 2.76563 24.8438C2.95313 21.8906 3.89063 19.2656 5.53125 17.2969C7.21875 15.2812 9.51562 14.1562 12 14.1562C14.4844 14.1562 16.7812 15.2812 18.4688 17.2969C20.1094 19.2188 21.0938 21.8906 21.2344 24.8438C19.7812 25.5938 16.2188 27.0937 12 27.0937Z" fill="#637381"/>
</svg>
